<svg width="1600" height="1000" viewBox="0 0 1600 1000" fill="none" xmlns="http://www.w3.org/2000/svg">
  <rect width="1600" height="1000" fill="#173D3A"/>
  <rect y="650" width="1600" height="350" fill="#EBDDC3"/>
  <path d="M0 0H1600V452C1372 389 1166 383 982 432C760 491 585 470 425 397C265 324 123 319 0 356V0Z" fill="#224C49"/>
  <path d="M0 0H1600V275C1412 321 1231 307 1055 234C846 147 650 129 455 184C263 238 112 210 0 143V0Z" fill="#284F8F" opacity=".42"/>
  <path d="M1290 80C1320 154 1385 248 1494 362" stroke="#F6C744" stroke-width="8" stroke-linecap="round" opacity=".8"/>
  <path d="M1248 98C1277 190 1331 282 1411 374" stroke="#F26B5E" stroke-width="7" stroke-linecap="round" opacity=".75"/>
  <path d="M1359 93C1371 178 1424 266 1518 356" stroke="#1DA7A1" stroke-width="7" stroke-linecap="round" opacity=".72"/>
  <rect x="182" y="225" width="265" height="400" rx="12" fill="#F7F4EC"/>
  <rect x="205" y="256" width="219" height="30" rx="6" fill="#F26B5E"/>
  <rect x="207" y="318" width="70" height="105" rx="8" fill="#1DA7A1"/>
  <rect x="294" y="318" width="98" height="18" rx="5" fill="#17201F" opacity=".75"/>
  <rect x="294" y="355" width="82" height="18" rx="5" fill="#17201F" opacity=".45"/>
  <rect x="294" y="392" width="103" height="18" rx="5" fill="#17201F" opacity=".45"/>
  <circle cx="250" cy="494" r="40" fill="#F6C744"/>
  <path d="M220 548H400" stroke="#17201F" stroke-width="14" stroke-linecap="round" opacity=".22"/>
  <path d="M220 578H354" stroke="#17201F" stroke-width="14" stroke-linecap="round" opacity=".22"/>
  <rect x="1128" y="250" width="250" height="375" rx="12" fill="#F7F4EC"/>
  <rect x="1150" y="279" width="206" height="28" rx="6" fill="#3550FF"/>
  <circle cx="1206" cy="380" r="50" fill="#F6C744"/>
  <path d="M1196 380L1230 349V411L1196 380Z" fill="#173D3A"/>
  <rect x="1175" y="474" width="184" height="18" rx="5" fill="#17201F" opacity=".44"/>
  <rect x="1175" y="515" width="130" height="18" rx="5" fill="#17201F" opacity=".44"/>
  <rect x="1175" y="556" width="160" height="18" rx="5" fill="#17201F" opacity=".22"/>
  <path d="M111 664C197 618 308 604 433 624C554 644 657 635 744 596C854 547 978 555 1114 621C1216 671 1326 676 1490 632V1000H111V664Z" fill="#D5BE94"/>
  <rect x="500" y="585" width="610" height="210" rx="18" fill="#F7F4EC"/>
  <rect x="530" y="558" width="550" height="56" rx="12" fill="#17201F"/>
  <circle cx="583" cy="586" r="17" fill="#F26B5E"/>
  <circle cx="637" cy="586" r="17" fill="#F6C744"/>
  <circle cx="691" cy="586" r="17" fill="#1DA7A1"/>
  <rect x="612" y="641" width="64" height="94" rx="14" fill="#A5E5DE"/>
  <path d="M612 668H676" stroke="#1DA7A1" stroke-width="8"/>
  <path d="M626 641V602H662V641" stroke="#17201F" stroke-width="10" stroke-linecap="round"/>
  <rect x="726" y="644" width="120" height="16" rx="8" fill="#F6C744"/>
  <rect x="726" y="683" width="176" height="16" rx="8" fill="#F26B5E"/>
  <rect x="726" y="722" width="140" height="16" rx="8" fill="#1DA7A1"/>
  <path d="M948 727L1001 641L1056 727H948Z" fill="#B5D7FF"/>
  <path d="M1001 641L1028 727H948L1001 641Z" fill="#3550FF" opacity=".36"/>
  <path d="M1004 596L1192 493" stroke="#F6C744" stroke-width="8" stroke-linecap="round"/>
  <path d="M1012 609L1230 561" stroke="#F26B5E" stroke-width="8" stroke-linecap="round"/>
  <path d="M1015 625L1204 640" stroke="#1DA7A1" stroke-width="8" stroke-linecap="round"/>
  <circle cx="480" cy="708" r="36" fill="#F26B5E"/>
  <path d="M447 742C472 767 504 768 535 742" stroke="#17201F" stroke-width="12" stroke-linecap="round" opacity=".32"/>
  <circle cx="1130" cy="704" r="34" fill="#3550FF"/>
  <path d="M1096 739C1129 765 1164 765 1192 737" stroke="#17201F" stroke-width="12" stroke-linecap="round" opacity=".32"/>
  <rect x="362" y="758" width="860" height="34" rx="17" fill="#17201F" opacity=".18"/>
  <circle cx="250" cy="780" r="52" fill="#173D3A"/>
  <rect x="218" y="833" width="64" height="135" rx="18" fill="#3550FF"/>
  <circle cx="1340" cy="785" r="52" fill="#173D3A"/>
  <rect x="1308" y="838" width="64" height="132" rx="18" fill="#F26B5E"/>
  <path d="M311 784C387 723 452 706 528 739" stroke="#F6C744" stroke-width="18" stroke-linecap="round"/>
  <path d="M1284 786C1224 732 1164 716 1089 738" stroke="#1DA7A1" stroke-width="18" stroke-linecap="round"/>
  <circle cx="918" cy="520" r="13" fill="#F6C744"/>
  <circle cx="965" cy="486" r="9" fill="#F26B5E"/>
  <circle cx="1030" cy="523" r="11" fill="#1DA7A1"/>
  <circle cx="771" cy="529" r="10" fill="#F6C744"/>
  <circle cx="708" cy="500" r="7" fill="#F26B5E"/>
</svg>
